<svg xmlns="http://www.w3.org/2000/svg" width="40" height="40" viewBox="0 0 24 24"><path d="M20.45 21.16 17 17.71v2.94h-1V16h4.65v1h-2.96l3.45 3.45zM12 21q-1.87 0-3.51-.7t-2.86-1.93-1.92-2.86-.71-3.5.7-3.52q.72-1.64 1.93-2.86t2.86-1.92 3.5-.71 3.52.7 2.86 1.93 1.92 2.86T21 12q0 .4-.04.8t-.1.82h-1.03q.08-.4.13-.81.04-.4.04-.81 0-.59-.08-1.18t-.27-1.17h-4.03q.11.58.16 1.17.05.6.05 1.18 0 .4-.03.8t-.07.82h-1q.05-.4.07-.81t.03-.81q0-.59-.05-1.18t-.16-1.17H9.38q-.11.58-.16 1.17-.05.6-.05 1.18t.05 1.18q.05.59.16 1.17h4v1H9.63q.36 1.28.94 2.46t1.44 2.2q.4 0 .8-.05l.82-.09v1l-.81.09q-.4.04-.81.04m-7.65-6.65h4.03q-.11-.58-.16-1.17-.05-.6-.05-1.18 0-.6.05-1.18.05-.59.16-1.17H4.35q-.18.58-.27 1.17-.08.6-.08 1.19t.08 1.17.27 1.17m.4-5.7h3.83q.3-1.25.81-2.4.52-1.14 1.34-2.15-2 .3-3.56 1.51Q5.6 6.82 4.75 8.65m5.98 11.25q-.76-1.03-1.29-2.17-.53-1.15-.85-2.38H4.75q.84 1.8 2.42 3.02 1.58 1.21 3.56 1.53M9.62 8.65h4.76q-.34-1.28-.94-2.44T12 3.99q-.84 1.02-1.44 2.2t-.94 2.46m5.8 0h3.83q-.84-1.83-2.42-3.05t-3.56-1.5q.76 1.03 1.26 2.18t.88 2.37"/></svg>